<svg enable-background="new 0 0 300 300" viewBox="0 0 300 300" xmlns="http://www.w3.org/2000/svg"><path d="m177.3 20.8h-58.5l-118.8 256.5h58.9l39.1-82.3h102.4l38.5 79.6h61.1zm-57.4 128 28.8-60.7 29.3 60.7z" fill="#e31837"/><path d="m127.3 248.9c.1-1.7.2-3.3.3-4.8h-22.8c-.4 0-.7-.1-1.1-.2-.2 1.4-.4 3.1-.6 5h.3zm1-10.5c-.4-.7-.8-1.6-1.2-2.4h-1.3c-2 1.5-4.5 2.4-7.3 2.4-2.7 0-5.2-.9-7.3-2.4h-4.7c-.2.1-.9.6-1.7 2.8h23.3c.2-.1.2-.3.2-.4zm-24.6 32c-.1 0-.1 0-.2 0 .5 3.3 1.2 5.1 1.6 5.7h26.3c-.9-1.3-1.7-3.3-2.3-5.7zm24.4-5.3c-.5-3.2-.8-6.9-.9-10.9h-23.8c-.2 0-.4 0-.7-.1 0 .6 0 1.2-.1 1.8h.1l-.1 2.6c0 2.5.1 4.7.2 6.7.3-.1.5-.1.8-.1zm-32.1-13.7-.1-25 .1-5.8h-3.5l-.1 5.7.1 25.4c.3 6.1 4.5 8.8 7.1 9.8l.2-3.1c0-.2 0-.5 0-.7-2.3-1.3-3.6-3.5-3.8-6.3zm16.3-18.2c.6.6 1.3 1 2 1.4 1.3.6 2.7 1 4.2 1s2.9-.4 4.2-1c.7-.4 1.4-.9 2-1.4.4-.4.8-.8 1.2-1.3 1.2-1.6 1.9-3.5 1.9-5.7 0-2.6-1-4.9-2.7-6.6s-4-2.8-6.6-2.8c-5.2 0-9.4 4.2-9.4 9.4.1 2.8 1.3 5.3 3.2 7zm6.3-12.3c2.9 0 5.3 2.4 5.3 5.3s-2.4 5.3-5.3 5.3-5.3-2.4-5.3-5.3 2.4-5.3 5.3-5.3zm0 8c1.5 0 2.7-1.2 2.7-2.7s-1.2-2.7-2.7-2.7-2.7 1.2-2.7 2.7 1.2 2.7 2.7 2.7zm157.2-135.4c-2.7-1.3-5.9-2.1-9.4-2.1s-6.7.8-9.4 2.1c-4 2-6.7 5.1-7.2 8.8 0 .4-.1.8-.1 1.1 0 4.1 2.9 7.8 7.3 9.9 2.7 1.3 5.9 2.1 9.4 2.1s6.7-.8 9.4-2.1c4.4-2.2 7.3-5.8 7.3-9.9 0 0 0 0 0-.1 0-4-2.9-7.6-7.3-9.8zm-9.4 18.8c-7.5 0-13.5-4-13.5-8.8 0-.3 0-.7.1-1 .8-4.4 6.5-7.8 13.4-7.8 7.3 0 13.5 4 13.5 8.8 0 4.8-6.2 8.8-13.5 8.8zm-82.8 163.7h19c.8-1.6 1.4-3.1 1.9-4.5h-17.7c-.9 1.8-2 3.4-3.2 4.5zm22.3-19.1h-16.2v.4c0 3.2-.4 6.2-1.1 9h16.1c.4 0 .8.1 1.2.2.8-3.4 1-6.7.9-9.6-.2-.1-.5 0-.9 0zm-20.2-15.9h17c-.6-1.2-1.3-2.1-1.7-2.8-.2-.3-.4-.5-.5-.7h-18c1.2.9 2.3 2.1 3.2 3.5zm3.7 10.6h16.6.5c-.4-2-.9-3.9-1.5-5.5-.5.2-1 .3-1.5.3h-15.3c.5 1.6.9 3.3 1.2 5.2zm-12.5-4.1c-.9 2.5-3 4.5-5.6 5.2-.7.2-1.5.3-2.3.3h-.8c-.4.3-.7.7-1 .9-.5.5-.8.8-.8.8-1 1-.7 1.7.7 2.1 1.1.3 2.9.5 5.3.3.4 0 .9-.1 1.4-.1 6.5-.6 6.5-.6 6.2-5.9-.2-2.6-1.5-3.6-3.1-3.6zm-2.3-2.9v-35.6c0-3.1-2.5-5.6-5.6-5.6h-27.7c-3.1 0-5.6 2.5-5.6 5.6v35.6c0 2 1 3.7 2.5 4.7.4.3.9.5 1.3.7.3.1.6.2.8.2s.3 0 .5.1h.4 27.8c3.1 0 5.6-2.6 5.6-5.7zm-31.3-2.3c0 .8-.6 1.4-1.4 1.4s-1.4-.6-1.4-1.4v-31c0-.8.6-1.4 1.4-1.4s1.4.6 1.4 1.4zm6.6 0c0 .8-.6 1.4-1.4 1.4s-1.4-.6-1.4-1.4v-31c0-.8.6-1.4 1.4-1.4s1.4.6 1.4 1.4zm6.6 0c0 .8-.6 1.4-1.4 1.4s-1.4-.6-1.4-1.4v-31c0-.8.6-1.4 1.4-1.4h.1c.7.1 1.3.7 1.3 1.4zm6.6 0c0 .8-.6 1.4-1.4 1.4s-1.4-.6-1.4-1.4v-31c0-.8.6-1.4 1.4-1.4s1.4.6 1.4 1.4zm3.8 0v-31c0-.8.6-1.4 1.4-1.4s1.4.6 1.4 1.4v31c0 .8-.6 1.4-1.4 1.4s-1.4-.6-1.4-1.4z" fill="#fff"/><path d="m284.7 103.6v-.1c0-7.3-8.2-13.3-18.3-13.3s-18.3 6-18.3 13.3c0 .5 0 1 .1 1.4-1.3 11.4-6.8 57.9-11.1 90.3l-15.8-56.2-4.6-1.7-54.2 34.5c-.6-.5-1.3-.8-2.2-.8-1.9 0-3.4 1.5-3.4 3.4v1l-12.3 7.8c-.9-.9-2.1-1.4-3.4-1.4-2.9 0-5.3 2.6-5.3 5.8 0 .3 0 .5.1.8-1.3.8-3 1.9-4.5 3.2l-41.3 26.2h-.6l-.1 8.5.1 25.5c.4 7.4 5.5 11.4 10.3 12.8.3 5 1 9 2 11.5h-3.8v3.1h124.5v-3.1h-17.1c9.8-1.9 20.7-6.3 27.6-15.3 4.2-5 11-15.9 16.5-28.7 2.3-1.4 3.8-3.6 3.9-6 0-.9-.2-1.9-.5-2.7 10.8-29.1 19-63.4 19-63.4 3.4-11.7 9.9-43.3 11.9-53.4.3-.9.5-1.7.5-2.6.3-.2.4-.4.3-.4zm-184.9 154.8-.2 3.1c-2.7-1.1-6.8-3.7-7.1-9.8l-.1-25.4.1-5.7h3.5l-.1 5.8.1 25c.1 2.8 1.5 5 3.8 6.3zm.3-7.6c-.1 1.2-.1 2.3-.2 3.5-.6-.8-1-1.7-1.1-2.9l-.1-24.9.1-8.6h-3.3l32.3-20.6v.9c.5 4.2 2.2 5.8 2.2 5.8s-4.8 1.2-4.8 7.5v4.6c-1.9-1.2-4.2-2-6.6-2-6.7 0-12.2 5.5-12.2 12.2 0 2.6.8 5 2.2 7h-1.9c-.4 0-1.1.1-1.9.7-2.6 1.8-4.1 7.5-4.7 16.8zm4.8-12c.8-2.2 1.6-2.7 1.7-2.8h4.7c2 1.5 4.5 2.4 7.3 2.4 2.7 0 5.2-.9 7.3-2.4h1.3c.3.9.7 1.7 1.2 2.4 0 .1 0 .3-.1.4zm22.7 5.3c-.1 1.5-.2 3.2-.3 4.8h-23.9c-.1 0-.2 0-.3 0 .2-2 .4-3.6.6-5 .3.1.7.2 1.1.2zm-18.4-17.9c0-5.2 4.2-9.4 9.4-9.4 2.6 0 4.9 1.1 6.6 2.8s2.7 4 2.7 6.6c0 2.1-.7 4.1-1.9 5.7-.4.5-.7.9-1.2 1.3-.6.6-1.3 1-2 1.4-1.3.6-2.7 1-4.2 1s-2.9-.4-4.2-1c-.7-.4-1.4-.9-2-1.4-2-1.7-3.2-4.2-3.2-7zm-6.5 32.3.1-2.6h-.1c0-.6 0-1.2.1-1.8.2 0 .4.1.7.1h23.8c.1 3.9.4 7.6.9 10.9h-24.4c-.3 0-.5 0-.8.1-.2-2-.3-4.2-.3-6.7zm2.5 17.6c-.4-.6-1.1-2.5-1.6-5.7h.2 25.5c.7 2.5 1.4 4.4 2.3 5.7zm111.8-135.6 1.9.7.8 2.8-18 90.8c-.2-.1-.3-.1-.5-.1h-4.8l18.6-92.9zm-53.3 33.9 43.6-27.8 2.4 3.1-46 28.6zm0 7.3 46.2-28.6-16.3 81.6h-16.1v-25.7c0-4.7-3.8-8.4-8.4-8.4h-5.2v-18.9zm-6.7-3v3.8l-10.6 6.6c.1-.5.2-1 .2-1.5 0-.7-.1-1.4-.3-2zm0 7.1v14.7h-1.9c-2.1-1.8-6-5.4-8.5-8.3zm-21.4 23.2c0-3.1 2.5-5.6 5.6-5.6h27.8c3.1 0 5.6 2.5 5.6 5.6v35.6c0 3.1-2.5 5.6-5.6 5.6h-27.7c-.1 0-.3 0-.4 0-.2 0-.3 0-.5-.1-.3 0-.6-.1-.8-.2-.5-.2-.9-.4-1.3-.7-1.5-1-2.5-2.7-2.5-4.7v-35.5zm1 67.1c1.8-2.6 3.2-8 3.9-14.7h26.9c.7 6.5 3 11.8 6.1 14.7zm37.2-19c-.5 0-.9.1-1.4.1-2.4.1-4.2 0-5.3-.3-1.4-.4-1.7-1.2-.7-2.1 0 0 .3-.3.8-.8.3-.3.6-.6 1-.9h.8c.8 0 1.6-.1 2.3-.3 2.6-.7 4.7-2.7 5.6-5.2 1.6 0 2.9 1 3 3.7.3 5.2.3 5.2-6.1 5.8zm26.7-19.6c.1.2.3.4.5.7.5.7 1.1 1.6 1.7 2.8h-17c-1-1.5-2-2.7-3.2-3.5zm2.9 8.8c.6 0 1.1-.1 1.5-.3.6 1.6 1.1 3.5 1.5 5.5-.2 0-.3 0-.5 0h-16.6c-.3-1.9-.7-3.6-1.2-5.2zm-.8 29.7h-19c1.2-1.1 2.3-2.7 3.2-4.5h17.7c-.5 1.4-1.2 3-1.9 4.5zm3.4-9.7c-.4-.1-.8-.2-1.2-.2h-16.1c.7-2.7 1.1-5.8 1.1-9 0-.1 0-.2 0-.4h16.2c.4 0 .7-.1 1-.1.1 3.1-.2 6.3-1 9.7zm27.5-46.3c-1.6 1.4-2.7 3.2-2.8 5.1-.1 1.2.3 2.4.9 3.5-3.1 11.7-11.3 37.5-23 39.3 2.5-10.2.7-18.6-1.6-24.4 0-.5-.2-.9-.5-1.3-.8-1.9-1.7-3.5-2.5-4.6l15.8-79.7 3-3.1 13.3 47.4c-1 7.2-1.9 13.4-2.6 17.8zm49.6-116.5c0 4.1-2.9 7.7-7.3 9.9-2.7 1.3-5.9 2.1-9.4 2.1s-6.7-.8-9.4-2.1c-4.4-2.2-7.3-5.8-7.3-9.9 0-.4 0-.8.1-1.1.5-3.6 3.2-6.8 7.2-8.8 2.7-1.3 5.9-2.1 9.4-2.1s6.7.8 9.4 2.1c4.4 2.1 7.3 5.7 7.3 9.9zm-164.5 128c2.9 0 5.3-2.4 5.3-5.3s-2.4-5.3-5.3-5.3-5.3 2.4-5.3 5.3 2.4 5.3 5.3 5.3zm0-8c1.5 0 2.7 1.2 2.7 2.7s-1.2 2.7-2.7 2.7-2.7-1.2-2.7-2.7 1.2-2.7 2.7-2.7zm147.8-128.9c-6.9 0-12.7 3.4-13.4 7.8-.1.3-.1.7-.1 1 0 4.9 6.1 8.8 13.5 8.8 7.3 0 13.5-4.1 13.5-8.8 0-4.8-6.2-8.8-13.5-8.8zm-111.3 149.1c.8 0 1.4-.6 1.4-1.4v-31c0-.7-.6-1.3-1.3-1.4h-.1c-.8 0-1.4.6-1.4 1.4v31c0 .8.6 1.4 1.4 1.4zm13.2 0c.8 0 1.4-.6 1.4-1.4v-31c0-.8-.6-1.4-1.4-1.4s-1.4.6-1.4 1.4v31c0 .8.6 1.4 1.4 1.4zm-19.8 0c.8 0 1.4-.6 1.4-1.4v-31c0-.8-.6-1.4-1.4-1.4s-1.4.6-1.4 1.4v31c0 .8.6 1.4 1.4 1.4zm-6.6 0c.8 0 1.4-.6 1.4-1.4v-31c0-.8-.6-1.4-1.4-1.4s-1.4.6-1.4 1.4v31c0 .8.6 1.4 1.4 1.4zm19.8 0c.8 0 1.4-.6 1.4-1.4v-31c0-.8-.6-1.4-1.4-1.4s-1.4.6-1.4 1.4v31c0 .8.6 1.4 1.4 1.4z"/></svg>